GIL02_fast3_ik
nRows=3
nColumns=375

# SIMM Motion File Header:
name GIL02_fast3_ik
datacolumns 375
datarows 3
otherdata 1
range 0.31667000 0.33333000
endheader
time	pelvis_tx	pelvis_ty	pelvis_tz	pelvis_tilt	pelvis_list	pelvis_rotation	hip_flexion_r	hip_adduction_r	hip_rotation_r	knee_angle_r	ankle_angle_r	hip_flexion_l	hip_adduction_l	hip_rotation_l	knee_angle_l	ankle_angle_l	lumbar_extension	lumbar_bending	lumbar_rotation	subtalar_angle_r	mtp_angle_r	subtalar_angle_l	mtp_angle_l	asis_r_px	asis_r_py	asis_r_pz	asis_l_px	asis_l_py	asis_l_pz	midasis_px	midasis_py	midasis_pz	psis_r_px	psis_r_py	psis_r_pz	psis_l_px	psis_l_py	psis_l_pz	hip_r_px	hip_r_py	hip_r_pz	hip_l_px	hip_l_py	hip_l_pz	midhip_px	midhip_py	midhip_pz	epicondLat_r_px	epicondLat_r_py	epicondLat_r_pz	epicondMed_r_px	epicondMed_r_py	epicondMed_r_pz	thighwand_r_px	thighwand_r_py	thighwand_r_pz	upperleg1_r_px	upperleg1_r_py	upperleg1_r_pz	upperleg2_r_px	upperleg2_r_py	upperleg2_r_pz	malleolusLat_r_px	malleolusLat_r_py	malleolusLat_r_pz	malleolusMedv_r_px	malleolusMedv_r_py	malleolusMedv_r_pz	shankwand_r_px	shankwand_r_py	shankwand_r_pz	lowerleg1_r_px	lowerleg1_r_py	lowerleg1_r_pz	knee_r_px	knee_r_py	knee_r_pz	ankle_r_px	ankle_r_py	ankle_r_pz	toe_r_px	toe_r_py	toe_r_pz	epicondLat_l_px	epicondLat_l_py	epicondLat_l_pz	epicondMed_l_px	epicondMed_l_py	epicondMed_l_pz	thighwand_l_px	thighwand_l_py	thighwand_l_pz	upperleg1_l_px	upperleg1_l_py	upperleg1_l_pz	upperleg2_l_px	upperleg2_l_py	upperleg2_l_pz	malleolusLat_l_px	malleolusLat_l_py	malleolusLat_l_pz	malleolusMedv_l_px	malleolusMedv_l_py	malleolusMedv_l_pz	shankwand_l_px	shankwand_l_py	shankwand_l_pz	lowerleg1_l_px	lowerleg1_l_py	lowerleg1_l_pz	knee_l_px	knee_l_py	knee_l_pz	ankle_l_px	ankle_l_py	ankle_l_pz	toe_l_px	toe_l_py	toe_l_pz	subclavicle_r_px	subclavicle_r_py	subclavicle_r_pz	subclavicle_l_px	subclavicle_l_py	subclavicle_l_pz	neck_px	neck_py	neck_pz	sternalnotch_px	sternalnotch_py	sternalnotch_pz	xyphoidprocess_px	xyphoidprocess_py	xyphoidprocess_pz	midhip_tx	midhip_ty	midhip_tz	hip_r_tx	hip_r_ty	hip_r_tz	hip_l_tx	hip_l_ty	hip_l_tz	knee_r_tx	knee_r_ty	knee_r_tz	knee_l_tx	knee_l_ty	knee_l_tz	ankle_r_tx	ankle_r_ty	ankle_r_tz	ankle_l_tx	ankle_l_ty	ankle_l_tz	midasis_tx	midasis_ty	midasis_tz	asis_r_tx	asis_r_ty	asis_r_tz	asis_l_tx	asis_l_ty	asis_l_tz	psis_r_tx	psis_r_ty	psis_r_tz	psis_l_tx	psis_l_ty	psis_l_tz	epicondLat_r_tx	epicondLat_r_ty	epicondLat_r_tz	epicondLat_l_tx	epicondLat_l_ty	epicondLat_l_tz	epicondMed_r_tx	epicondMed_r_ty	epicondMed_r_tz	epicondMed_l_tx	epicondMed_l_ty	epicondMed_l_tz	malleolusLat_r_tx	malleolusLat_r_ty	malleolusLat_r_tz	malleolusLat_l_tx	malleolusLat_l_ty	malleolusLat_l_tz	malleolusMedv_r_tx	malleolusMedv_r_ty	malleolusMedv_r_tz	malleolusMedv_l_tx	malleolusMedv_l_ty	malleolusMedv_l_tz	neck_tx	neck_ty	neck_tz	subclavicle_r_tx	subclavicle_r_ty	subclavicle_r_tz	subclavicle_l_tx	subclavicle_l_ty	subclavicle_l_tz	sternalnotch_tx	sternalnotch_ty	sternalnotch_tz	xyphoidprocess_tx	xyphoidprocess_ty	xyphoidprocess_tz	thighwand_r_tx	thighwand_r_ty	thighwand_r_tz	thighwand_l_tx	thighwand_l_ty	thighwand_l_tz	upperleg1_r_tx	upperleg1_r_ty	upperleg1_r_tz	upperleg1_l_tx	upperleg1_l_ty	upperleg1_l_tz	upperleg2_r_tx	upperleg2_r_ty	upperleg2_r_tz	upperleg2_l_tx	upperleg2_l_ty	upperleg2_l_tz	shankwand_r_tx	shankwand_r_ty	shankwand_r_tz	shankwand_l_tx	shankwand_l_ty	shankwand_l_tz	lowerleg1_r_tx	lowerleg1_r_ty	lowerleg1_r_tz	lowerleg1_l_tx	lowerleg1_l_ty	lowerleg1_l_tz	toe_r_tx	toe_r_ty	toe_r_tz	toe_l_tx	toe_l_ty	toe_l_tz	ground_force_vx	ground_force_vy	ground_force_vz	ground_force_px	ground_force_py	ground_force_pz	ground_force_vx	ground_force_vy	ground_force_vz	ground_force_px	ground_force_py	ground_force_pz	ground_torque_x	ground_torque_y	ground_torque_z	ground_torque_x	ground_torque_y	ground_torque_z	ground_marker_px	ground_marker_py	ground_marker_pz	ground_marker_px	ground_marker_py	ground_marker_pz	ground_marker_px	ground_marker_py	ground_marker_pz	ground_marker_px	ground_marker_py	ground_marker_pz	ground_marker_px	ground_marker_py	ground_marker_pz	ground_marker_px	ground_marker_py	ground_marker_pz	ground_marker_px	ground_marker_py	ground_marker_pz	ground_marker_px	ground_marker_py	ground_marker_pz	ground_marker_px	ground_marker_py	ground_marker_pz	ground_marker_px	ground_marker_py	ground_marker_pz	ground_marker_px	ground_marker_py	ground_marker_pz	ground_marker_px	ground_marker_py	ground_marker_pz	ground_marker_px	ground_marker_py	ground_marker_pz	ground_marker_px	ground_marker_py	ground_marker_pz	ground_marker_px	ground_marker_py	ground_marker_pz	ground_marker_px	ground_marker_py	ground_marker_pz	ground_marker_px	ground_marker_py	ground_marker_pz	ground_marker_px	ground_marker_py	ground_marker_pz	ground_marker_px	ground_marker_py	ground_marker_pz	ground_marker_px	ground_marker_py	ground_marker_pz	ground_marker_px	ground_marker_py	ground_marker_pz	ground_marker_px	ground_marker_py	ground_marker_pz	ground_marker_px	ground_marker_py	ground_marker_pz	ground_marker_px	ground_marker_py	ground_marker_pz	ground_marker_px	ground_marker_py	ground_marker_pz	ground_marker_px	ground_marker_py	ground_marker_pz	ground_marker_px	ground_marker_py	ground_marker_pz	ground_marker_px	ground_marker_py	ground_marker_pz	ground_marker_px	ground_marker_py	ground_marker_pz	ground_marker_px	ground_marker_py	ground_marker_pz	ground_marker_px	ground_marker_py	ground_marker_pz	ground_marker_px	ground_marker_py	ground_marker_pz	ground_marker_px	ground_marker_py	ground_marker_pz	ground_marker_px	ground_marker_py	ground_marker_pz	ground_marker_px	ground_marker_py	ground_marker_pz	ground_marker_px	ground_marker_py	ground_marker_pz	ground_marker_px	ground_marker_py	ground_marker_pz
      0.31667000	      0.86090367	      0.95266325	     -0.18229563	      0.24773373	      2.75790576	      1.75748381	     -7.84068714	     -0.45201964	     11.71199966	     -3.18127183	      8.28589548	     25.17857945	      4.06110546	      0.68629623	    -38.84098916	     -2.85121102	     -1.46380757	      0.30097378	      3.47446396	      0.00000000	      0.00000000	      0.00000000	      0.00000000	      0.91086021	      0.94751314	     -0.06658209	      0.90572915	      0.96540318	     -0.30401348	      0.87392187	      0.95273876	     -0.18269462	      0.72299279	      1.00550766	     -0.14516379	      0.72587611	      1.00851749	     -0.23103830	      0.79782590	      0.88713368	     -0.10568404	      0.79302877	      0.89458498	     -0.26079517	      0.79542734	      0.89085933	     -0.18323961	      0.78111585	      0.45652772	     -0.05297815	      0.72804069	      0.47288268	     -0.15033772	      0.86255665	      0.55880170	      0.00515464	      0.86555664	      0.62574256	     -0.06357439	      0.84325140	      0.54122604	     -0.08374787	      0.65627076	      0.06620556	     -0.08293615	      0.66406744	      0.08240764	     -0.15251361	      0.72456724	      0.18457596	      0.00196130	      0.68923617	      0.16198760	     -0.06722230	      0.73832616	      0.47233610	     -0.11956444	      0.66471669	      0.08163808	     -0.12843194	      0.78504746	      0.03506724	     -0.12720093	      0.99283615	      0.50372078	     -0.32432430	      0.98143800	      0.50626720	     -0.21427709	      1.08557552	      0.66143232	     -0.26346094	      1.00066791	      0.68706764	     -0.30494820	      1.01843186	      0.60195161	     -0.30363814	      0.85775238	      0.11765869	     -0.29118860	      0.88652735	      0.12500976	     -0.23105763	      0.91619848	      0.24393361	     -0.37846606	      0.89267538	      0.21239556	     -0.30726650	      0.97736711	      0.51272876	     -0.25473394	      0.88551002	      0.12582607	     -0.25149219	      0.98384783	      0.05933661	     -0.29466446	      0.81565809	      1.35287015	     -0.10585977	      0.81877665	      1.36263328	     -0.21370432	      0.68220657	      1.42088515	     -0.14848983	      0.79953410	      1.36412488	     -0.15681137	      0.89358278	      1.20846897	     -0.17995701	      0.79720600	      0.90017600	     -0.17563400	      0.79193200	      0.87440200	     -0.10626900	      0.78785800	      0.88112300	     -0.25649300	      0.74147000	      0.47386300	     -0.11210800	      0.97521800	      0.49339200	     -0.25168400	      0.65923500	      0.07506100	     -0.15205900	      0.88621700	      0.11242500	     -0.24118500	      0.87555700	      0.96537300	     -0.17978400	      0.87876400	      0.96008200	     -0.06151900	      0.87235000	      0.97066400	     -0.29805000	      0.69201900	      1.00430100	     -0.14097600	      0.69252000	      1.00159900	     -0.22662700	      0.75502300	      0.47132700	     -0.05525600	      0.97599800	      0.49304900	     -0.30967800	      0.71888500	      0.47645400	     -0.16505100	      0.98712800	      0.47302300	     -0.19758300	      0.64819500	      0.07348900	     -0.11364400	      0.86496800	      0.11649500	     -0.27363400	      0.66659800	      0.09225100	     -0.17944200	      0.89486900	      0.12381900	     -0.21506500	      0.68556800	      1.42424200	     -0.14746900	      0.81553800	      1.35333500	     -0.10828300	      0.81401900	      1.35770900	     -0.21602800	      0.79766900	      1.36250200	     -0.15866700	      0.88334400	      1.20201100	     -0.17819400	      0.81861900	      0.56086800	      0.01579100	      1.08843400	      0.62706500	     -0.26639200	      0.82939900	      0.62957200	     -0.04545300	      1.00157400	      0.64826100	     -0.30030600	      0.81585800	      0.54493900	     -0.07449100	      1.01759600	      0.56182000	     -0.29558100	      0.69647000	      0.19116500	     -0.01577000	      0.90925200	      0.24511500	     -0.36213900	      0.67333700	      0.17009400	     -0.09044300	      0.89315700	      0.21145500	     -0.28980600	      0.77596900	      0.03994300	     -0.14401300	      0.98702400	      0.05423900	     -0.26752400	     -2.66515134	    436.74912813	    -10.64678737	      0.76857990	      0.00000000	     -0.12439501	      0.00000000	      0.00000000	      0.00000000	      1.45716077	      0.00000000	     -0.20950432	      0.00000000	     -0.68557043	      0.00000000	      0.00000000	      0.00000000	      0.00000000	      0.79720563	      0.90017593	     -0.17563376	      0.79193199	      0.87440217	     -0.10626884	      0.78785801	      0.88112295	     -0.25649273	      0.74147022	      0.47386295	     -0.11210763	      0.97521812	      0.49339151	     -0.25168407	      0.65923476	      0.07506074	     -0.15205854	      0.88621676	      0.11242528	     -0.24118491	      0.87555718	      0.96537328	     -0.17978430	      0.87876439	      0.96008229	     -0.06151891	      0.87234992	      0.97066432	     -0.29804969	      0.69201916	      1.00430131	     -0.14097646	      0.69251978	      1.00159860	     -0.22662722	      0.75502342	      0.47132668	     -0.05525583	      0.97599775	      0.49304897	     -0.30967784	      0.71888530	      0.47645441	     -0.16505121	      0.98712826	      0.47302267	     -0.19758277	      0.64819467	      0.07348906	     -0.11364441	      0.86496776	      0.11649520	     -0.27363360	      0.66659820	      0.09225065	     -0.17944153	      0.89486873	      0.12381908	     -0.21506545	      0.68556803	      1.42424214	     -0.14746904	      0.81553799	      1.35333514	     -0.10828331	      0.81401861	      1.35770941	     -0.21602826	      0.79766905	      1.36250210	     -0.15866655	      0.88334405	      1.20201075	     -0.17819412	      0.81861907	      0.56086844	      0.01579059	      1.08843374	      0.62706465	     -0.26639202	      0.82939905	      0.62957209	     -0.04545273	      1.00157404	      0.64826089	     -0.30030644	      0.81585813	      0.54493886	     -0.07449056	      1.01759565	      0.56181985	     -0.29558074	      0.69646996	      0.19116521	     -0.01577008	      0.90925157	      0.24511470	     -0.36213934	      0.67333698	      0.17009410	     -0.09044309	      0.89315730	      0.21145536	     -0.28980559	      0.77596903	      0.03994255	     -0.14401284	      0.98702395	      0.05423915	     -0.26752400
      0.32500000	      0.87342881	      0.95138639	     -0.18182976	      0.22469366	      3.01093498	      1.33886804	     -8.79648687	     -0.79486388	     11.87273494	     -2.81712963	      8.59369567	     25.37554520	      4.20170238	     -0.08469406	    -35.74508821	     -3.08052962	     -1.35906863	      0.07995106	      3.71280339	      0.00000000	      0.00000000	      0.00000000	      0.00000000	      0.92253770	      0.94568291	     -0.06577982	      0.91914883	      0.96463180	     -0.30316032	      0.88644962	      0.95145344	     -0.18213367	      0.73529111	      1.00417367	     -0.14546773	      0.73880182	      1.00756277	     -0.23130475	      0.80974559	      0.88556666	     -0.10597151	      0.80608346	      0.89371087	     -0.26107876	      0.80791452	      0.88963876	     -0.18352513	      0.78551571	      0.45539266	     -0.05266218	      0.73300314	      0.47250187	     -0.15019704	      0.86853167	      0.55634803	      0.00554741	      0.87287131	      0.62312036	     -0.06327397	      0.84917905	      0.53896670	     -0.08338300	      0.65653237	      0.06665792	     -0.08299902	      0.66473273	      0.08276736	     -0.15255158	      0.72584422	      0.18428085	      0.00211415	      0.69049350	      0.16207457	     -0.06718301	      0.74315006	      0.47186207	     -0.11938177	      0.66529504	      0.08199291	     -0.12846788	      0.78535025	      0.03473236	     -0.12672451	      1.00662536	      0.50312056	     -0.32397486	      0.99561984	      0.50602225	     -0.21389648	      1.09919436	      0.66127087	     -0.26399710	      1.01407382	      0.68655251	     -0.30526448	      1.03205285	      0.60148553	     -0.30372323	      0.89346527	      0.11137723	     -0.28878733	      0.92203108	      0.12058531	     -0.22881254	      0.94432056	      0.24039475	     -0.37680368	      0.92291479	      0.20786850	     -0.30538101	      0.99073034	      0.51271496	     -0.25437041	      0.92088360	      0.12125986	     -0.24924538	      1.02242677	      0.05983348	     -0.29249813	      0.82752458	      1.35165347	     -0.10535522	      0.83096856	      1.36149947	     -0.21318233	      0.69411360	      1.41951486	     -0.14835538	      0.81154524	      1.36292301	     -0.15634909	      0.90588178	      1.20741424	     -0.17931164	      0.80994500	      0.89992800	     -0.17535000	      0.80339100	      0.87304400	     -0.10685700	      0.80045600	      0.88019600	     -0.25708700	      0.74622600	      0.47361900	     -0.11168900	      0.98911600	      0.49261600	     -0.25078200	      0.65973800	      0.07561500	     -0.15195800	      0.92191300	      0.10676700	     -0.23950800	      0.88761800	      0.96417800	     -0.17947800	      0.88993100	      0.95854100	     -0.06106400	      0.88530500	      0.96981600	     -0.29789100	      0.70382200	      1.00324300	     -0.14159300	      0.70483800	      1.00048400	     -0.22721600	      0.75954900	      0.47102400	     -0.05478500	      0.98969500	      0.49195500	     -0.30877500	      0.72075900	      0.47742900	     -0.16287800	      0.99881900	      0.47228500	     -0.19679800	      0.64875800	      0.07411200	     -0.11352400	      0.90054700	      0.10953800	     -0.27201700	      0.66701600	      0.09283700	     -0.17933500	      0.93060900	      0.11822800	     -0.21363500	      0.69760500	      1.42281500	     -0.14730800	      0.82778600	      1.35228600	     -0.10794200	      0.82573400	      1.35621300	     -0.21568000	      0.80955100	      1.36115700	     -0.15824900	      0.89546900	      1.20077200	     -0.17755300	      0.82433600	      0.55969500	      0.01606000	      1.10084300	      0.62618100	     -0.26652300	      0.83625700	      0.62830000	     -0.04566000	      1.01373700	      0.64704100	     -0.30043600	      0.82041700	      0.54439600	     -0.07374700	      1.02941300	      0.56036100	     -0.29531900	      0.69851300	      0.19136800	     -0.01542100	      0.93764500	      0.24033400	     -0.36077100	      0.67492200	      0.17071400	     -0.08988800	      0.92395200	      0.20549700	     -0.28854100	      0.77607800	      0.03994700	     -0.14402900	      1.02610400	      0.05386400	     -0.26490800	      1.56833642	    446.93829764	    -12.05495974	      0.77004517	      0.00000000	     -0.12479564	      0.00000000	      0.00000000	      0.00000000	      1.46156238	      0.00000000	     -0.21000754	      0.00000000	     -0.81377020	      0.00000000	      0.00000000	      0.00000000	      0.00000000	      0.80994481	      0.89992791	     -0.17535006	      0.80339128	      0.87304384	     -0.10685670	      0.80045635	      0.88019609	     -0.25708726	      0.74622631	      0.47361875	     -0.11168920	      0.98911601	      0.49261606	     -0.25078213	      0.65973777	      0.07561471	     -0.15195788	      0.92191273	      0.10676687	     -0.23950781	      0.88761818	      0.96417820	     -0.17947759	      0.88993150	      0.95854068	     -0.06106409	      0.88530487	      0.96981567	     -0.29789108	      0.70382184	      1.00324285	     -0.14159256	      0.70483828	      1.00048387	     -0.22721604	      0.75954860	      0.47102365	     -0.05478548	      0.98969549	      0.49195468	     -0.30877545	      0.72075886	      0.47742921	     -0.16287780	      0.99881864	      0.47228470	     -0.19679809	      0.64875817	      0.07411198	     -0.11352365	      0.90054715	      0.10953822	     -0.27201676	      0.66701597	      0.09283675	     -0.17933469	      0.93060881	      0.11822801	     -0.21363536	      0.69760501	      1.42281508	     -0.14730765	      0.82778633	      1.35228586	     -0.10794165	      0.82573360	      1.35621333	     -0.21567972	      0.80955070	      1.36115658	     -0.15824905	      0.89546913	      1.20077157	     -0.17755316	      0.82433635	      0.55969548	      0.01605959	      1.10084331	      0.62618101	     -0.26652306	      0.83625680	      0.62829959	     -0.04566042	      1.01373720	      0.64704102	     -0.30043620	      0.82041711	      0.54439628	     -0.07374679	      1.02941298	      0.56036144	     -0.29531938	      0.69851261	      0.19136781	     -0.01542123	      0.93764496	      0.24033439	     -0.36077130	      0.67492241	      0.17071381	     -0.08988837	      0.92395198	      0.20549716	     -0.28854120	      0.77607793	      0.03994720	     -0.14402865	      1.02610421	      0.05386373	     -0.26490757
      0.33333000	      0.88596670	      0.94988183	     -0.18134517	      0.19793218	      3.24967156	      0.87261860	     -9.67133895	     -1.11658718	     12.01737638	     -2.60899143	      8.96059854	     25.52234763	      4.29091731	     -1.02080549	    -32.60026311	     -3.53469789	     -1.21802830	     -0.08791005	      3.94001793	      0.00000000	      0.00000000	      0.00000000	      0.00000000	      0.93412748	      0.94364622	     -0.06492584	      0.93268126	      0.96359340	     -0.30224433	      0.89898961	      0.94993806	     -0.18154321	      0.74758586	      1.00264441	     -0.14588295	      0.75179578	      1.00639013	     -0.23167369	      0.82161139	      0.88380376	     -0.10628288	      0.81921487	      0.89260164	     -0.26137915	      0.82041313	      0.88820270	     -0.18383102	      0.79033083	      0.45413839	     -0.05254437	      0.73847816	      0.47195583	     -0.15030522	      0.87471515	      0.55383478	      0.00586717	      0.88038537	      0.62044134	     -0.06301805	      0.85543551	      0.53664954	     -0.08311719	      0.65669117	      0.06713024	     -0.08325779	      0.66537977	      0.08310522	     -0.15278207	      0.72709949	      0.18392470	      0.00209594	      0.69176518	      0.16212626	     -0.06733895	      0.74847070	      0.47121424	     -0.11944298	      0.66583221	      0.08233483	     -0.12869592	      0.78558257	      0.03433566	     -0.12629138	      1.01992760	      0.50202041	     -0.32378476	      1.00955626	      0.50537370	     -0.21365765	      1.11262437	      0.66054881	     -0.26501462	      1.02723128	      0.68553995	     -0.30589405	      1.04533630	      0.60050470	     -0.30409728	      0.92898460	      0.10590283	     -0.28618117	      0.95738082	      0.11697966	     -0.22644234	      0.97192516	      0.23716532	     -0.37509083	      0.95285197	      0.20381878	     -0.30338599	      1.00375174	      0.51222790	     -0.25413747	      0.95606301	      0.11749395	     -0.24686956	      1.06023967	      0.06082144	     -0.29034907	      0.83919211	      1.35019803	     -0.10466316	      0.84307441	      1.36020062	     -0.21246097	      0.70584077	      1.41787670	     -0.14813371	      0.82340819	      1.36150960	     -0.15570856	      0.91812448	      1.20620473	     -0.17848707	      0.82265300	      0.89953400	     -0.17519800	      0.81480500	      0.87146900	     -0.10741800	      0.81313500	      0.87899000	     -0.25765000	      0.75145200	      0.47319900	     -0.11143600	      1.00265700	      0.49142000	     -0.24984600	      0.66022800	      0.07617800	     -0.15189900	      0.95745500	      0.10188700	     -0.23783300	      0.89969900	      0.96272200	     -0.17910700	      0.90101600	      0.95678700	     -0.06053400	      0.89838100	      0.96865800	     -0.29768000	      0.71554200	      1.00195800	     -0.14233600	      0.71714200	      0.99915800	     -0.22791900	      0.76448300	      0.47055200	     -0.05446800	      1.00291300	      0.49037700	     -0.30783600	      0.72708000	      0.47734500	     -0.16304200	      1.01103900	      0.47042400	     -0.19661700	      0.64934400	      0.07475900	     -0.11343500	      0.93606600	      0.10336500	     -0.27041100	      0.66749500	      0.09354700	     -0.17913500	      0.96567600	      0.11367100	     -0.21189900	      0.70934200	      1.42106900	     -0.14697700	      0.83939100	      1.35080700	     -0.10722800	      0.83740300	      1.35457000	     -0.21508600	      0.82155600	      1.35955600	     -0.15785100	      0.90725600	      1.19924900	     -0.17661700	      0.83031200	      0.55836700	      0.01638000	      1.11285100	      0.62455800	     -0.26696200	      0.84334100	      0.62701100	     -0.04537900	      1.02547100	      0.64485100	     -0.30060600	      0.82692500	      0.54361900	     -0.07335600	      1.04107100	      0.55848700	     -0.29546500	      0.70079700	      0.19147900	     -0.01512100	      0.96593600	      0.23601000	     -0.35941200	      0.67665200	      0.17050600	     -0.08973600	      0.95419600	      0.19988600	     -0.28708300	      0.77621800	      0.03992800	     -0.14407300	      1.06470000	      0.05402300	     -0.26208400	      5.82282433	    463.06591817	    -14.00533556	      0.77136426	      0.00000000	     -0.12522743	      0.00000000	      0.00000000	      0.00000000	      1.46608337	      0.00000000	     -0.21054208	      0.00000000	     -0.93308960	      0.00000000	      0.00000000	      0.00000000	      0.00000000	      0.82265282	      0.89953411	     -0.17519774	      0.81480455	      0.87146926	     -0.10741834	      0.81313521	      0.87898976	     -0.25765029	      0.75145221	      0.47319943	     -0.11143638	      1.00265670	      0.49142003	     -0.24984556	      0.66022813	      0.07617840	     -0.15189920	      0.95745504	      0.10188742	     -0.23783344	      0.89969885	      0.96272230	     -0.17910708	      0.90101635	      0.95678663	     -0.06053414	      0.89838129	      0.96865803	     -0.29768002	      0.71554190	      1.00195801	     -0.14233595	      0.71714181	      0.99915779	     -0.22791880	      0.76448298	      0.47055191	     -0.05446761	      1.00291252	      0.49037731	     -0.30783564	      0.72707981	      0.47734529	     -0.16304180	      1.01103866	      0.47042421	     -0.19661713	      0.64934397	      0.07475912	     -0.11343468	      0.93606573	      0.10336484	     -0.27041128	      0.66749513	      0.09354686	     -0.17913508	      0.96567595	      0.11367052	     -0.21189857	      0.70934224	      1.42106938	     -0.14697663	      0.83939052	      1.35080659	     -0.10722750	      0.83740270	      1.35456967	     -0.21508580	      0.82155555	      1.35955608	     -0.15785101	      0.90725613	      1.19924891	     -0.17661691	      0.83031189	      0.55836678	      0.01637984	      1.11285055	      0.62455785	     -0.26696151	      0.84334123	      0.62701058	     -0.04537900	      1.02547145	      0.64485085	     -0.30060634	      0.82692504	      0.54361910	     -0.07335649	      1.04107082	      0.55848747	     -0.29546520	      0.70079738	      0.19147894	     -0.01512145	      0.96593636	      0.23601007	     -0.35941187	      0.67665237	      0.17050636	     -0.08973618	      0.95419556	      0.19988587	     -0.28708255	      0.77621788	      0.03992826	     -0.14407319	      1.06470013	      0.05402312	     -0.26208359
